<?xml version="1.0" encoding="UTF-8" standalone="no"?>
<!DOCTYPE svg PUBLIC "-//W3C//DTD SVG 1.1//EN" "http://www.w3.org/Graphics/SVG/1.1/DTD/svg11.dtd">
<svg xmlns="http://www.w3.org/2000/svg" version="1.1" viewBox="0 0 362 439">
<path fill="#14b3e3" d="
  M 305.96 252.00
  Q 308.30 250.45 309.19 248.94
  Q 313.01 242.43 312.54 234.01
  Q 312.15 226.99 309.06 219.19
  Q 305.73 210.74 299.30 205.46
  Q 276.66 186.82 247.73 194.42
  Q 220.92 201.46 202.89 222.31
  C 202.71 222.51 202.40 222.52 202.21 222.32
  Q 194.92 214.60 187.21 207.30
  Q 182.51 202.84 178.91 198.61
  Q 174.99 194.02 171.09 189.43
  Q 152.56 167.66 140.97 141.52
  Q 140.29 139.99 138.79 140.75
  Q 138.69 138.89 139.25 129.25
  Q 140.77 103.17 156.30 84.24
  Q 158.48 81.58 162.20 78.79
  Q 164.36 77.17 166.47 75.49
  Q 169.02 73.47 170.84 72.38
  Q 182.85 65.14 197.25 63.50
  Q 210.00 62.05 221.75 66.00
  Q 246.67 74.37 249.50 100.75
  Q 250.36 108.78 248.28 120.69
  Q 248.19 121.20 247.79 120.87
  Q 246.60 119.84 244.69 117.56
  Q 239.82 111.77 232.87 108.96
  Q 225.90 106.14 218.86 107.09
  Q 210.07 108.27 203.19 114.94
  Q 194.69 123.18 191.03 133.78
  Q 188.28 141.73 188.33 153.49
  Q 188.41 171.68 194.72 188.83
  Q 197.74 197.07 198.35 198.89
  Q 200.04 203.98 201.83 209.03
  Q 202.05 209.65 202.41 209.23
  Q 202.63 208.96 202.58 208.49
  Q 202.20 205.26 203.66 202.36
  Q 211.86 186.05 226.08 175.41
  Q 233.76 169.66 243.27 165.25
  Q 271.00 152.40 301.34 161.34
  Q 304.76 162.35 308.45 164.21
  Q 311.87 165.93 315.26 167.74
  Q 321.58 171.11 326.64 176.00
  Q 331.47 180.67 335.69 186.61
  Q 344.96 199.64 344.75 215.50
  Q 344.55 230.55 335.44 241.69
  Q 332.36 245.45 326.98 249.97
  Q 322.00 254.16 316.50 255.25
  Q 310.63 256.42 305.96 252.00
  Z"
/>
<path fill="#14b3e3" d="
  M 144.29 87.25
  L 144.25 87.71
  Q 136.93 90.71 129.83 94.19
  Q 121.95 98.05 117.93 102.01
  Q 107.70 112.12 106.00 128.25
  Q 103.76 149.53 111.50 167.04
  Q 119.60 194.38 142.56 210.19
  Q 154.32 218.28 168.45 222.95
  Q 173.90 224.75 181.10 225.88
  Q 187.54 226.90 194.01 227.67
  Q 195.90 227.90 197.30 229.18
  C 197.43 229.29 197.61 229.34 197.78 229.30
  Q 201.88 228.38 200.69 229.44
  Q 200.00 230.04 198.15 232.23
  Q 196.87 233.75 195.20 234.43
  Q 181.28 240.06 165.00 237.00
  Q 147.67 233.74 133.85 227.31
  Q 127.89 224.53 125.26 223.09
  Q 121.03 220.77 117.32 217.67
  Q 111.41 212.73 111.34 212.68
  Q 107.55 209.74 103.79 206.75
  Q 86.08 191.89 77.69 171.31
  Q 74.45 163.38 73.22 154.41
  Q 72.02 145.69 72.44 137.07
  Q 73.35 118.42 83.44 103.44
  Q 87.29 97.71 93.55 92.31
  Q 99.91 86.83 105.97 84.07
  Q 120.16 77.60 136.19 82.06
  Q 138.44 82.69 144.29 87.25

  Z"
/>


<path fill="#02fbd8" d="
  M 305.96 252.00
  Q 289.99 230.92 264.33 224.13
  Q 245.71 219.21 226.94 220.94
  Q 217.32 221.82 207.96 225.75
  Q 207.22 225.74 207.31 226.49
  Q 207.64 229.19 209.50 231.21
  Q 208.92 231.17 208.96 231.75
  Q 208.16 231.09 207.75 232.00
  Q 203.37 241.69 195.20 247.65
  Q 188.23 252.74 177.32 255.25
  Q 161.82 258.81 144.75 255.75
  Q 116.95 250.77 94.50 239.21
  Q 94.54 238.29 95.44 235.69
  Q 99.12 225.05 102.06 210.06
  Q 102.24 209.18 103.79 206.75
  Q 107.55 209.74 111.34 212.68
  Q 111.41 212.73 117.32 217.67
  Q 121.03 220.77 125.26 223.09
  Q 127.89 224.53 133.85 227.31
  Q 147.67 233.74 165.00 237.00
  Q 181.28 240.06 195.20 234.43
  Q 196.87 233.75 198.15 232.23
  Q 200.00 230.04 200.69 229.44
  Q 201.88 228.38 197.78 229.30
  C 197.61 229.34 197.43 229.29 197.30 229.18
  Q 195.90 227.90 194.01 227.67
  Q 187.54 226.90 181.10 225.88
  Q 173.90 224.75 168.45 222.95
  Q 154.32 218.28 142.56 210.19
  Q 119.60 194.38 111.50 167.04
  Q 112.67 166.71 113.52 165.77
  Q 115.96 163.03 118.27 160.19
  Q 120.83 157.05 123.24 154.80
  Q 130.91 147.66 138.79 140.75
  Q 140.29 139.99 140.97 141.52
  Q 152.56 167.66 171.09 189.43
  Q 174.99 194.02 178.91 198.61
  Q 182.51 202.84 187.21 207.30
  Q 194.92 214.60 202.21 222.32
  C 202.40 222.52 202.71 222.51 202.89 222.31
  Q 220.92 201.46 247.73 194.42
  Q 276.66 186.82 299.30 205.46
  Q 305.73 210.74 309.06 219.19
  Q 312.15 226.99 312.54 234.01
  Q 313.01 242.43 309.19 248.94
  Q 308.30 250.45 305.96 252.00
  Z"
/>
<path fill="#14b3e3" d="
  M 94.50 239.21
  Q 116.95 250.77 144.75 255.75
  Q 161.82 258.81 177.32 255.25
  Q 188.23 252.74 195.20 247.65
  Q 203.37 241.69 207.75 232.00
  Q 208.16 231.09 208.96 231.75
  Q 210.13 235.96 208.75 241.00
  Q 199.54 274.60 167.75 288.49
  Q 144.60 298.61 120.75 296.00
  Q 98.83 293.60 81.69 280.81
  Q 68.82 271.22 61.79 256.88
  Q 58.00 249.15 56.67 241.06
  Q 55.30 232.76 56.17 224.24
  Q 56.70 219.04 59.30 214.53
  Q 60.58 212.32 62.75 211.05
  C 63.00 210.91 63.32 210.96 63.51 211.19
  Q 68.41 216.82 73.16 222.58
  Q 81.98 233.29 94.50 239.21
  Z"
/>
<path fill="#14b3e3" d="
  M 207.96 225.75
  Q 209.23 227.29 211.24 227.80
  Q 220.86 230.20 230.50 232.51
  Q 234.81 233.54 238.84 235.34
  Q 245.26 238.22 245.39 238.28
  Q 264.79 246.59 278.69 264.56
  Q 294.43 284.92 294.50 310.00
  Q 294.55 329.00 282.69 344.66
  Q 267.81 364.32 244.25 368.75
  Q 233.79 370.72 223.75 366.69
  Q 218.32 364.52 215.54 363.12
  Q 211.48 361.09 208.20 357.80
  Q 200.56 350.13 195.69 338.73
  Q 194.61 336.20 197.18 337.18
  Q 199.84 338.19 204.09 339.88
  Q 206.59 340.88 209.23 340.39
  Q 213.19 339.66 216.86 338.14
  Q 220.51 336.63 223.65 334.12
  Q 234.18 325.68 236.47 311.75
  Q 237.97 302.64 237.34 293.55
  Q 236.77 285.42 233.76 275.84
  Q 226.04 251.29 209.50 231.21
  Q 207.64 229.19 207.31 226.49
  Q 207.22 225.74 207.96 225.75
  Z"
/>

<text font-family="Futura" color="white" x="50%" y="95%" fill="rgb(79,155,195)" font-size="3em" dominant-baseline="middle" text-anchor="middle">ParaFlow</text>    

</svg>
